<svg xmlns="http://www.w3.org/2000/svg" data-name="Layer 1" width="12798" height="2884"><rect id="backgroundrect" width="100%" height="100%" x="0" y="0" fill="none" stroke="none" style="" class=""/>
  <defs>
    <style>
      .cls-1 {
        stroke-dasharray: 0 0 12.05 12.05;
      }

      .cls-1, .cls-2, .cls-3, .cls-4, .cls-5, .cls-6, .cls-7 {
        fill: none;
        stroke: #151829;
        stroke-miterlimit: 10;
      }

      .cls-2 {
        stroke-dasharray: 0 0 12 12;
      }

      .cls-3 {
        stroke-dasharray: 0 0 12.01 12.01;
      }

      .cls-8 {
        fill: #24a1ba;
      }

      .cls-8, .cls-9 {
        stroke-width: 0px;
      }

      .cls-5 {
        stroke-dasharray: 0 0 12.03 12.03;
      }

      .cls-9 {
        fill: #151829;
      }

      .cls-6 {
        stroke-dasharray: 0 0 11.95 11.95;
      }

      .cls-7 {
        stroke-dasharray: 0 0 11.98 11.98;
      }
    </style>
  </defs>
  
  
<g class="currentLayer" style=""><title>Layer 1</title><g class="" id="svg_29"><g id="svg_1" class="">
    <g id="svg_2">
      <path class="cls-9" d="M3013.9545341300964,430.0701345825196 c-0.3600000000000003,-1.07 -0.8,-2.05 -1.1600000000000001,-3.21 l-0.18000000000000024,-0.45 l-1.25,-3.74 l-1.6900000000000008,-4.19 c-0.54,-1.34 -1.07,-2.85 -1.6900000000000008,-4.37 c-31.72,-83.05 -79.22,-156.57 -141.42,-218.77 c-62.11,-62.11 -135.63,-109.61 -218.68,-141.25 c-1.4300000000000002,-0.7100000000000006 -2.94,-1.34 -4.46,-1.78 l-4.1,-1.6900000000000008 l-3.6500000000000004,-1.1600000000000001 l-0.54,-0.3500000000000003 c-1.07,-0.3600000000000003 -2.14,-0.7100000000000006 -3.21,-1.07 c-86.44,-31.81 -182.95,-48.03 -287.21,-48.03 s-227.42,17.47 -355.12,51.95 c-4.46,1.07 -7.93,2.14 -9.98,2.58 l-0.18000000000000024,0.18000000000000024 c-46.61,12.74 -95.53,28.16 -145.43,45.8 c-59.62,21.03 -121.55,45.54 -183.75,72.54 c-3.83,1.6 -7.58,3.39 -11.32,4.99 c-4.28,1.87 -8.47,3.74 -12.65,5.7 c-2.5,0.98 -4.9,2.05 -7.3100000000000005,3.12 l-1.1600000000000001,0.6200000000000095 l-1.1600000000000001,0.45 c-8.38,3.6500000000000004 -16.84,7.49 -25.22,11.41 c-79.93,-68.26 -165.04,-119.32 -254.77,-152.74 c-0.98,-0.4400000000000048 -2.05,-0.8 -3.03,-1.1600000000000001 l-0.8900000000000107,-0.27 l-3.48,-1.4300000000000002 l-3.12,-1.07 c-1.42,-0.54 -2.7600000000000002,-0.98 -4.1,-1.51 c-75.57,-27.18 -154.7,-41.17 -235.35,-41.17 s-159.78,13.9 -235.35,41.17 c-1.34,0.45 -2.68,0.98 -4.01,1.51 l-3.56,1.1600000000000001 l-3.56,1.51 l-0.45,0.09000000000000188 c-1.07,0.3600000000000003 -2.05,0.8 -3.12,1.1600000000000001 c-169.94,63.36 -323.39,190.08 -456.17,376.5 c-2.3200000000000003,3.21 -4.19,5.88 -5.8,8.11 c-24.95,35.47 -49.55,73.61 -73.34,113.8 c-28.16,47.59 -55.52,98.56 -81.09,151.31 c-1.78,3.56 -3.47,7.04 -5.16,10.69 c-1.6900000000000008,3.47 -3.39,7.13 -5.08,10.6 c-0.8,1.6900000000000008 -1.6900000000000008,3.48 -2.49,5.44 l-0.7100000000000006,1.25 l-0.54,1.25 c-27.53,58.37 -52.75,119.14 -75.12,180.37 c-1.96,4.99 -3.74,10.16 -5.52,15.24 c-9.89,27.27 -19.52,56.05 -29.5,87.78 l-0.09000000000000188,0.27 l-0.09000000000000188,0.27 c-27.36,87.69 -49.28,177.16 -65.14,266.09 c-4.99,27.36 -8.11,47.32 -10.07,62.2 c-5.17,35.11 -9.45,70.93 -12.74,106.49 c-10.25,109.97 -10.6,218.77 -1.1600000000000001,322.95 l0.09000000000000188,1.1600000000000001 l0.09000000000000188,1.4300000000000002 l0.27,2.85 c0.27,3.3 0.6300000000000096,6.42 0.8900000000000107,9.54 l0.3600000000000003,3.56 l0.18000000000000024,1.6 l0.6200000000000095,5.62 c0.3600000000000003,3.56 0.7100000000000006,6.95 1.1600000000000001,10.25 h-0.09000000000000188 c12.3,108.27 35.38,212.8 68.71,310.74 c2.05,6.24 3.92,11.76 5.88,17.11 c28.25,79.4 63.62,155.5 105.33,226.26 c88.22,149.8 212.71,277.41 360.02,369.11 c148.82,92.68 317.87,146.68 488.79,156.39 l1.96,0.09000000000000188 h0.3600000000000003 c2.85,0.27 5.7,0.4400000000000048 8.46,0.53 l1.1600000000000001,0.09000000000000188 h1.24 c0.8900000000000107,0.09000000000000188 1.78,0.09000000000000188 2.68,0.09000000000000188 c10.6,0.45 21.21,0.7100000000000006 31.72,0.7100000000000006 c5.26,0 10.51,-0.09000000000000188 15.77,-0.18000000000000024 h0.7100000000000006 c5.88,0.09000000000000188 11.67,0.18000000000000024 17.56,0.18000000000000024 c137.95,0 277.5,-24.68 414.73,-73.43 c85.99,-30.57 172.08,-69.42 255.93,-115.94 c5.35,-2.85 10.78,-6.06 17.02,-9.54 c102.39,-58.1 203.45,-128.59 300.4,-209.24 c2.7600000000000002,-2.41 5.7,-4.8100000000000005 9.18,-7.84 c2.3200000000000003,-1.87 4.73,-3.83 6.24,-5.26 l1.25,-0.8900000000000107 l2.14,-1.78 c2.68,-2.3200000000000003 5.26,-4.54 7.85,-6.77 c1.24,-1.1600000000000001 2.41,-2.14 3.74,-3.3 l0.8900000000000107,-0.7100000000000006 l0.8900000000000107,-0.7100000000000006 c92.15,-79.67 181.53,-169.58 265.83,-267.61 c27.27,-31.72 54.18,-64.25 79.85,-96.95 l-0.09000000000000188,-0.09000000000000188 c17.29,-20.94 35.91,-46.25 45,-58.28 c63.63,-85.1 123.78,-175.02 178.76,-267.16 c20.32,-34.04 38.05,-65.05 54.45,-95.08 c2.7600000000000002,-4.8100000000000005 5.44,-9.620000000000001 7.93,-14.53 c36.72,-67.19 70.76,-135.72 101.32,-203.98 l0.54,-1.07 l0.4400000000000048,-1.1600000000000001 c1.07,-2.5 2.14,-4.8100000000000005 3.3,-7.22 c1.87,-4.28 3.74,-8.64 5.61,-12.92 c1.6900000000000008,-3.6500000000000004 3.3,-7.3100000000000005 4.9,-11.23 c27.18,-62.2 51.6,-124.05 72.72,-184.02 c17.56,-49.64 32.97,-98.56 45.81,-145.17 v-0.18000000000000024 c0.6200000000000095,-2.23 1.61,-5.53 2.7600000000000002,-9.89 c67.46,-250.32 68.71,-466.33 3.83,-642.33 zM1879.8945341300964,1741.2001345825197 c-0.3600000000000003,4.1 -0.7100000000000006,8.29 -1.07,12.39 c-0.3600000000000003,2.5 -1.78,16.84 -1.87,17.29 c-9.8,86.17 -27.89,170.65 -55.78,251.92 c-1.25,3.83 -2.41,7.66 -3.83,11.32 c-21.74,61.31 -48.92,120.57 -82.34,177.16 c-131.98,224.12 -366.53,370 -617.02,384.17 c-2.5,0.09000000000000188 -4.99,0.3600000000000003 -7.4,0.54 h-2.85 c-2.5,0.18000000000000024 -5.08,0.27 -7.66,0.3600000000000003 c-4.46,0.18000000000000024 -8.91,0.18000000000000024 -13.37,0.18000000000000024 c-7.04,0 -14.08,-0.18000000000000024 -21.03,-0.54 h-2.94 c-2.31,-0.18000000000000024 -4.8100000000000005,-0.4400000000000048 -7.3100000000000005,-0.54 c-250.5,-14.17 -485.13,-160.05 -617.11,-384.17 c-33.33,-56.59 -60.6,-115.85 -82.34,-177.16 c-1.34,-3.66 -2.58,-7.49 -3.83,-11.32 c-27.8,-81.27 -45.98,-165.75 -55.7,-251.92 c-0.09000000000000188,-0.45 -1.51,-14.79 -1.87,-17.29 c-0.45,-4.1 -0.7100000000000006,-8.29 -1.1600000000000001,-12.39 c-8.02,-89.29 -7.21,-180.19 1.1600000000000001,-270.46 c2.23,-24.24 4.99,-48.48 8.28,-72.54 c0.8,-6.15 1.6900000000000008,-12.21 2.58,-18.36 c0,-0.18000000000000024 5.44,-35.56 8.65,-53.02 c13.9,-78.6 33.15,-156.31 56.59,-231.61 c8.55,-27 17.47,-53.74 27.09,-80.2 c0.6200000000000095,-2.05 1.34,-4.01 2.14,-5.88 c20.05,-55.34 42.42,-109.26 66.75,-160.94 c2.85,-6.06 5.7,-12.03 8.64,-18.18 c0.8,-1.6900000000000008 1.61,-3.39 2.41,-4.8100000000000005 c21.03,-43.66 44.83,-88.76 71.47,-133.67 c18.89,-31.99 39.03,-63.72 60.87,-94.55 c0.98,-1.34 1.96,-2.94 3.03,-4.37 c85.82,-121.1 193.82,-228.22 325.36,-276.78 c1.87,-0.6200000000000095 3.83,-1.34 5.7,-2.14 c0.8,-0.27 1.6,-0.54 2.4,-0.7100000000000006 c43.67,-16.22 90.9,-25.04 140.18,-25.04 s96.51,8.82 140.17,25.04 c0.8,0.18000000000000024 1.61,0.45 2.3200000000000003,0.7100000000000006 c1.87,0.8 3.83,1.51 5.7,2.14 c24.86,9.18 48.92,20.41 72.09,33.42 c85.91,48.57 160.4,121.46 223.85,203.62 c10.07,13.01 19.87,26.29 29.41,39.74 c1.1600000000000001,1.4300000000000002 2.14,3.03 3.12,4.37 c21.74,30.83 41.97,62.56 60.87,94.55 c26.56,44.91 50.44,90.01 71.47,133.67 c0.8,1.4300000000000002 1.6,3.12 2.31,4.8100000000000005 c3.03,6.15 5.8,12.12 8.73,18.18 c24.33,51.68 46.7,105.6 66.75,160.94 c0.8,1.87 1.51,3.83 2.14,5.88 c9.620000000000001,26.47 18.54,53.2 27,80.2 c23.52,75.3 42.69,153.01 56.67,231.61 c3.21,17.47 8.65,52.84 8.65,53.02 c4.46,30.03 8.02,60.42 10.870000000000001,90.9 c8.38,90.27 9.18,181.17 1.07,270.46 zM2731.3745341300964,1000.4001345825195 c-0.4400000000000048,2.05 -1.07,4.01 -1.6,5.97 c-11.67,42.42 -25.04,84.39 -39.66,125.74 c-20.49,58.1 -43.13,114.51 -66.3,167.44 c-0.8,1.87 -1.6900000000000008,3.83 -2.58,5.79 c-3.21,7.58 -6.59,14.79 -9.8,22.1 c-27.98,62.47 -59.26,125.47 -93.66,188.03 c-0.98,2.23 -2.23,4.46 -3.56,6.77 c-16.31,29.76 -33.42,59.44 -51.06,89.2 c-49.19,82.52 -103.55,163.79 -162.46,242.66 c-13.01,17.38 -40.1,52.13 -40.28,52.31 c-23.17,29.5 -47.14,58.64 -71.74,87.15 c-27.89,32.44 -56.59,64.07 -86.08,94.82 c28.96,-90.45 49.19,-186.25 60.33,-285.16 c0.45,-3.3 0.7100000000000006,-6.68 1.1600000000000001,-10.34 l0.54,-5.44 l0.17,-1.6900000000000008 l0.45,-3.56 c0.27,-3.12 0.54,-6.24 0.8,-9.45 l0.27,-2.7600000000000002 l0.18000000000000024,-1.34 l0.09000000000000188,-1.4300000000000002 c9.45,-104.17 9.09,-212.98 -1.1600000000000001,-323.13 c-3.3,-35.38 -7.58,-71.2 -12.74,-106.31 c-1.96,-14.88 -5.08,-34.84 -10.16,-62.2 c-15.77,-88.85 -37.69,-178.41 -65.14,-266.09 v-0.27 l-0.09000000000000188,-0.27 c-9.98,-31.72 -19.69,-60.51 -29.58,-87.78 c-1.6900000000000008,-5.08 -3.56,-10.25 -5.53,-15.24 c-22.28,-61.31 -47.5,-122 -75.03,-180.37 l-0.6300000000000096,-1.25 l-0.6200000000000095,-1.25 c-0.8,-1.87 -1.6900000000000008,-3.66 -2.49,-5.44 c-1.6900000000000008,-3.47 -3.39,-7.04 -5.08,-10.51 c-1.6900000000000008,-3.6500000000000004 -3.39,-7.13 -5.26,-10.78 c-25.58,-52.75 -52.85,-103.73 -81.18,-151.49 c-23.61,-40.01 -48.21,-78.15 -73.07,-113.53 c-1.42,-1.96 -2.94,-4.19 -4.8100000000000005,-6.68 c43.58,-18.36 89.2,-36.27 135.99,-52.84 c41.17,-14.44 83.23,-27.89 125.56,-39.48 c2.05,-0.6200000000000095 4.01,-1.25 6.06,-1.6900000000000008 c95.62,-26.02 192.39,-42.69 283.11,-42.69 c67.37,0 131.35,9.18 189.01,30.65 c1.96,0.7100000000000006 4.01,1.4300000000000002 5.97,2.14 c0.8,0.3500000000000003 1.51,0.7100000000000006 2.31,0.98 c45,16.67 86.17,42.33 121.02,77.17 c34.84,34.84 60.51,76.1 77.26,121.1 c0.27,0.7100000000000006 0.6300000000000096,1.6 0.98,2.41 c0.6200000000000095,1.96 1.42,3.92 2.14,5.88 c50.53,135.45 33.24,305.66 -12.03,472.12 z" id="svg_3"/>
      <g id="svg_4">
        <g id="svg_5">
          <path class="cls-4" d="M1596.8745341300964,196.83013458251958 c-1.82,0.8400000000000006 -3.63,1.6800000000000006 -5.44,2.5300000000000002 c-1.52,-1.3 -3.05,-2.59 -4.57,-3.88 " id="svg_6"/>
          <path class="cls-6" d="M1577.6745341300966,187.8201345825196 c-75.92,-62.5 -156.41,-109.7 -241.02,-141.2 c-0.98,-0.4400000000000048 -2.05,-0.8 -3.03,-1.1600000000000001 l-0.8900000000000107,-0.27 l-3.48,-1.4300000000000002 l-3.12,-1.07 c-1.42,-0.54 -2.7600000000000002,-0.98 -4.1,-1.51 c-75.57,-27.18 -154.7,-41.17 -235.35,-41.17 s-159.78,13.9 -235.35,41.17 c-1.34,0.45 -2.68,0.98 -4.01,1.51 l-3.56,1.1600000000000001 l-3.56,1.51 l-0.45,0.09000000000000188 c-1.07,0.3600000000000003 -2.05,0.8 -3.12,1.1600000000000001 c-169.94,63.36 -323.39,190.08 -456.17,376.5 c-2.3200000000000003,3.21 -4.19,5.88 -5.8,8.11 c-24.95,35.47 -49.55,73.61 -73.34,113.8 c-28.16,47.59 -55.52,98.56 -81.09,151.31 c-1.78,3.56 -3.47,7.04 -5.17,10.69 c-1.6900000000000008,3.47 -3.39,7.13 -5.08,10.6 c-0.8,1.6900000000000008 -1.6900000000000008,3.48 -2.49,5.44 l-0.7100000000000006,1.25 l-0.54,1.25 c-27.53,58.37 -52.75,119.14 -75.12,180.37 c-1.96,4.99 -3.74,10.16 -5.52,15.24 c-9.89,27.27 -19.52,56.05 -29.5,87.78 l-0.09000000000000188,0.27 l-0.09000000000000188,0.27 c-27.36,87.69 -49.28,177.16 -65.14,266.09 c-4.99,27.36 -8.11,47.32 -10.07,62.2 c-5.17,35.11 -9.45,70.93 -12.74,106.49 c-10.25,109.97 -10.6,218.77 -1.1600000000000001,322.95 l0.09000000000000188,1.1600000000000001 l0.09000000000000188,1.4300000000000002 l0.27,2.85 c0.27,3.3 0.6300000000000096,6.42 0.8900000000000107,9.54 l0.3600000000000003,3.56 l0.18000000000000024,1.6 l0.4400000000000048,3.9699999999999998 " id="svg_7"/>
          <path class="cls-4" d="M9.754534130096546,1797.2601345825196 c0.22000000000000094,2.03 0.45,4.01 0.7100000000000006,5.96 h-0.09000000000000188 c0.23,1.99 0.46,3.9699999999999998 0.6900000000000127,5.96 " id="svg_8"/>
          <path class="cls-5" d="M12.524534130096526,1821.1201345825193 c12.74,101.89 35.08,200.31 66.57,292.84 c2.05,6.24 3.92,11.76 5.88,17.11 c28.25,79.4 63.62,155.5 105.33,226.26 c88.22,149.8 212.71,277.41 360.02,369.11 c148.82,92.68 317.87,146.68 488.79,156.39 l1.96,0.09000000000000188 h0.3600000000000003 c2.85,0.27 5.7,0.4400000000000048 8.46,0.53 l1.1600000000000001,0.09000000000000188 h1.24 c0.8900000000000107,0.09000000000000188 1.78,0.09000000000000188 2.68,0.09000000000000188 c10.6,0.45 21.21,0.7100000000000006 31.72,0.7100000000000006 c5.26,0 10.51,-0.09000000000000188 15.77,-0.18000000000000024 h0.7100000000000006 c5.88,0.09000000000000188 11.67,0.18000000000000024 17.56,0.18000000000000024 c137.95,0 277.5,-24.68 414.73,-73.43 c85.99,-30.57 172.08,-69.42 255.93,-115.94 c5.35,-2.85 10.78,-6.06 17.02,-9.54 c102.39,-58.1 203.45,-128.59 300.4,-209.24 c2.7600000000000002,-2.41 5.7,-4.8100000000000005 9.18,-7.84 c2.3200000000000003,-1.87 4.73,-3.83 6.24,-5.26 l1.25,-0.8900000000000107 l2.14,-1.78 c2.68,-2.3200000000000003 5.26,-4.54 7.85,-6.77 c1.24,-1.1600000000000001 2.41,-2.14 3.74,-3.3 l0.8900000000000107,-0.7100000000000006 l0.8900000000000107,-0.7100000000000006 c92.15,-79.67 181.53,-169.58 265.83,-267.61 c24.65,-28.67 49,-58 72.4,-87.52 " id="svg_9"/>
          <path class="cls-4" d="M2482.9545341300964,2089.0901345825196 c1.24,-1.57 2.48,-3.14 3.71,-4.72 l-0.09000000000000188,-0.09000000000000188 c1.26,-1.53 2.5300000000000002,-3.08 3.8,-4.6400000000000015 " id="svg_10"/>
          <path class="cls-3" d="M2497.8845341300967,2070.2501345825194 c13.6,-17.24 26.58,-34.82 33.7,-44.25 c63.63,-85.1 123.78,-175.02 178.76,-267.16 c20.32,-34.04 38.05,-65.05 54.45,-95.08 c2.7600000000000002,-4.8100000000000005 5.44,-9.620000000000001 7.93,-14.53 c36.72,-67.19 70.76,-135.72 101.32,-203.98 l0.54,-1.07 l0.4400000000000048,-1.1600000000000001 c1.07,-2.5 2.14,-4.8100000000000005 3.3,-7.22 c1.87,-4.28 3.74,-8.64 5.61,-12.92 c1.6900000000000008,-3.6500000000000004 3.3,-7.3100000000000005 4.9,-11.23 c27.18,-62.2 51.6,-124.05 72.72,-184.02 c17.56,-49.64 32.97,-98.56 45.81,-145.17 v-0.18000000000000024 c0.6200000000000095,-2.23 1.61,-5.53 2.7600000000000002,-9.89 c67.46,-250.32 68.71,-466.33 3.83,-642.33 c-0.3600000000000003,-1.07 -0.8,-2.05 -1.1600000000000001,-3.21 l-0.18000000000000024,-0.45 l-1.25,-3.74 l-1.6900000000000008,-4.19 c-0.54,-1.34 -1.07,-2.85 -1.6900000000000008,-4.37 c-31.73,-83.05 -79.22,-156.57 -141.42,-218.77 c-62.11,-62.11 -135.63,-109.61 -218.68,-141.25 c-1.4300000000000002,-0.7100000000000006 -2.94,-1.34 -4.46,-1.78 l-4.1,-1.6900000000000008 l-3.6500000000000004,-1.1600000000000001 l-0.54,-0.3500000000000003 c-1.07,-0.3600000000000003 -2.14,-0.7100000000000006 -3.21,-1.07 c-86.44,-31.81 -182.95,-48.03 -287.21,-48.03 s-227.42,17.47 -355.12,51.95 c-4.46,1.07 -7.93,2.14 -9.98,2.58 l-0.18000000000000024,0.18000000000000024 c-46.61,12.74 -95.53,28.16 -145.43,45.8 c-59.62,21.03 -121.55,45.54 -183.75,72.54 c-3.83,1.6 -7.58,3.39 -11.32,4.99 c-4.28,1.87 -8.47,3.74 -12.65,5.7 c-2.5,0.98 -4.9,2.05 -7.3100000000000005,3.12 l-1.1600000000000001,0.6200000000000095 l-1.1600000000000001,0.45 c-4.75,2.07 -9.54,4.21 -14.32,6.38 " id="svg_11"/>
        </g>
        <path class="cls-2" d="M1879.8945341300964,1741.2001345825197 c-0.3600000000000003,4.1 -0.7100000000000006,8.29 -1.07,12.39 c-0.3600000000000003,2.5 -1.78,16.84 -1.87,17.29 c-9.8,86.17 -27.89,170.65 -55.78,251.92 c-1.25,3.83 -2.41,7.66 -3.83,11.32 c-21.74,61.31 -48.92,120.57 -82.34,177.16 c-131.98,224.12 -366.53,370 -617.02,384.17 c-2.5,0.09000000000000188 -4.99,0.3600000000000003 -7.4,0.54 h-2.85 c-2.5,0.18000000000000024 -5.08,0.27 -7.66,0.3600000000000003 c-4.46,0.18000000000000024 -8.91,0.18000000000000024 -13.37,0.18000000000000024 c-7.04,0 -14.08,-0.18000000000000024 -21.03,-0.54 h-2.94 c-2.31,-0.18000000000000024 -4.8100000000000005,-0.4400000000000048 -7.3100000000000005,-0.54 c-250.5,-14.17 -485.13,-160.05 -617.11,-384.17 c-33.33,-56.59 -60.6,-115.85 -82.34,-177.16 c-1.34,-3.66 -2.58,-7.49 -3.83,-11.32 c-27.8,-81.27 -45.98,-165.75 -55.7,-251.92 c-0.09000000000000188,-0.45 -1.51,-14.79 -1.87,-17.29 c-0.45,-4.1 -0.7100000000000006,-8.29 -1.1600000000000001,-12.39 c-8.02,-89.29 -7.21,-180.19 1.1600000000000001,-270.46 c2.23,-24.24 4.99,-48.48 8.29,-72.54 c0.8,-6.15 1.6900000000000008,-12.21 2.58,-18.36 c0,-0.18000000000000024 5.44,-35.56 8.65,-53.02 c13.9,-78.6 33.15,-156.31 56.59,-231.61 c8.55,-27 17.47,-53.74 27.09,-80.2 c0.6200000000000095,-2.05 1.34,-4.01 2.14,-5.88 c20.05,-55.34 42.42,-109.26 66.75,-160.94 c2.85,-6.06 5.7,-12.03 8.64,-18.18 c0.8,-1.6900000000000008 1.61,-3.39 2.41,-4.8100000000000005 c21.03,-43.66 44.83,-88.76 71.47,-133.67 c18.89,-31.99 39.03,-63.72 60.87,-94.55 c0.98,-1.34 1.96,-2.94 3.03,-4.37 c85.81,-121.1 193.82,-228.22 325.36,-276.78 c1.87,-0.6200000000000095 3.83,-1.34 5.7,-2.14 c0.8,-0.27 1.6,-0.54 2.4,-0.7100000000000006 c43.67,-16.22 90.9,-25.04 140.18,-25.04 s96.51,8.82 140.17,25.04 c0.81,0.18000000000000024 1.61,0.45 2.3200000000000003,0.7100000000000006 c1.87,0.8 3.83,1.51 5.7,2.14 c24.86,9.18 48.92,20.41 72.09,33.42 c85.91,48.57 160.4,121.46 223.85,203.62 c10.07,13.01 19.87,26.29 29.41,39.74 c1.1600000000000001,1.4300000000000002 2.14,3.03 3.12,4.37 c21.74,30.83 41.97,62.56 60.86,94.55 c26.56,44.91 50.44,90.01 71.47,133.67 c0.8,1.4300000000000002 1.6,3.12 2.31,4.8100000000000005 c3.03,6.15 5.8,12.12 8.73,18.18 c24.33,51.68 46.7,105.6 66.75,160.94 c0.8,1.87 1.51,3.83 2.14,5.88 c9.620000000000001,26.47 18.54,53.2 27,80.2 c23.52,75.3 42.69,153.01 56.67,231.61 c3.21,17.47 8.65,52.84 8.65,53.02 c4.46,30.03 8.02,60.42 10.870000000000001,90.9 c8.38,90.27 9.18,181.17 1.07,270.46 z" id="svg_12"/>
        <g id="svg_13">
          <path class="cls-4" d="M2106.7445341300963,2084.0501345825196 c-1.3800000000000001,1.45 -2.7600000000000002,2.89 -4.15,4.34 c0.6100000000000046,-1.9 1.21,-3.81 1.82,-5.72 " id="svg_14"/>
          <path class="cls-7" d="M2107.9545341300964,2071.2301345825194 c26.11,-85.38 44.52,-175.32 54.96,-268.01 c0.45,-3.3 0.7100000000000006,-6.68 1.1600000000000001,-10.34 l0.54,-5.44 l0.17,-1.6900000000000008 l0.45,-3.56 c0.27,-3.12 0.54,-6.24 0.8,-9.45 l0.27,-2.7600000000000002 l0.18000000000000024,-1.34 l0.09000000000000188,-1.4300000000000002 c9.45,-104.17 9.09,-212.98 -1.1600000000000001,-323.13 c-3.3,-35.38 -7.58,-71.2 -12.74,-106.31 c-1.96,-14.88 -5.08,-34.84 -10.16,-62.2 c-15.77,-88.85 -37.69,-178.41 -65.14,-266.09 v-0.27 l-0.09000000000000188,-0.27 c-9.98,-31.72 -19.69,-60.51 -29.58,-87.78 c-1.6900000000000008,-5.08 -3.56,-10.25 -5.53,-15.24 c-22.28,-61.31 -47.5,-122 -75.03,-180.37 l-0.6300000000000096,-1.25 l-0.6200000000000095,-1.25 c-0.8,-1.87 -1.6900000000000008,-3.66 -2.49,-5.44 c-1.6900000000000008,-3.47 -3.39,-7.04 -5.08,-10.51 c-1.6900000000000008,-3.6500000000000004 -3.39,-7.13 -5.26,-10.78 c-25.58,-52.75 -52.85,-103.73 -81.18,-151.49 c-22.93,-38.85 -46.79,-75.94 -70.92,-110.45 " id="svg_15"/>
          <path class="cls-4" d="M1797.5045341300965,429.5001345825194 c-1.06,-1.49 -2.2,-3.11 -3.51,-4.87 c1.84,-0.77 3.68,-1.55 5.53,-2.3200000000000003 " id="svg_16"/>
          <path class="cls-1" d="M1810.6345341300967,417.6901345825195 c38.5,-15.92 78.48,-31.42 119.34,-45.89 c41.17,-14.44 83.23,-27.89 125.56,-39.48 c2.05,-0.6200000000000095 4.01,-1.25 6.06,-1.6900000000000008 c95.62,-26.02 192.39,-42.69 283.11,-42.69 c67.37,0 131.35,9.18 189.01,30.65 c1.96,0.7100000000000006 4.01,1.4300000000000002 5.97,2.14 c0.8,0.3500000000000003 1.51,0.7100000000000006 2.31,0.98 c45,16.67 86.17,42.33 121.02,77.17 c34.84,34.84 60.51,76.1 77.26,121.1 c0.27,0.7100000000000006 0.6300000000000096,1.6 0.98,2.41 c0.6200000000000095,1.96 1.42,3.92 2.14,5.88 c50.53,135.45 33.24,305.66 -12.03,472.12 c-0.4400000000000048,2.05 -1.07,4.01 -1.6,5.97 c-11.67,42.42 -25.04,84.39 -39.66,125.74 c-20.49,58.1 -43.13,114.51 -66.3,167.44 c-0.8,1.87 -1.6900000000000008,3.83 -2.58,5.79 c-3.21,7.58 -6.59,14.79 -9.8,22.1 c-27.98,62.47 -59.26,125.47 -93.66,188.03 c-0.98,2.23 -2.23,4.46 -3.56,6.77 c-16.31,29.76 -33.42,59.44 -51.06,89.2 c-49.19,82.52 -103.55,163.79 -162.46,242.66 c-13.01,17.38 -40.1,52.13 -40.28,52.31 c-23.17,29.5 -47.14,58.64 -71.74,87.15 c-25.27,29.38 -51.2,58.11 -77.78,86.12 " id="svg_17"/>
        </g>
      </g>
    </g>
    <g id="svg_18">
      <path class="cls-8" d="M1879.8945341300964,1741.1501345825195 c-0.3600000000000003,4.1 -0.7100000000000006,8.29 -1.07,12.39 c-0.3600000000000003,2.5 -1.78,16.84 -1.87,17.29 c-9.8,86.17 -27.89,170.65 -55.78,251.92 c-1.25,3.83 -2.41,7.66 -3.83,11.32 c-21.74,61.31 -48.92,120.57 -82.34,177.16 c-131.98,224.12 -366.53,370 -617.02,384.17 c-2.5,0.09000000000000188 -4.99,0.3600000000000003 -7.4,0.54 h-2.85 c-2.5,0.18000000000000024 -5.08,0.27 -7.66,0.3600000000000003 c-4.46,0.18000000000000024 -8.91,0.18000000000000024 -13.37,0.18000000000000024 c-7.04,0 -14.08,-0.18000000000000024 -21.03,-0.54 h-2.94 c-2.31,-0.18000000000000024 -4.8100000000000005,-0.4400000000000048 -7.3100000000000005,-0.54 c-250.5,-14.17 -485.13,-160.05 -617.11,-384.17 c-33.33,-56.59 -60.6,-115.85 -82.34,-177.16 c-1.34,-3.66 -2.58,-7.49 -3.83,-11.32 c-27.8,-81.27 -45.98,-165.75 -55.7,-251.92 c-0.09000000000000188,-0.45 -1.51,-14.79 -1.87,-17.29 c-0.45,-4.1 -0.7100000000000006,-8.29 -1.1600000000000001,-12.39 c-8.02,-89.29 -7.21,-180.19 1.1600000000000001,-270.46 c2.23,-24.24 4.99,-48.48 8.28,-72.54 c0.8,-6.15 1.6900000000000008,-12.21 2.58,-18.36 c0,-0.18000000000000024 5.44,-35.56 8.65,-53.02 c13.9,-78.6 33.15,-156.31 56.59,-231.61 c8.55,-27 17.47,-53.74 27.09,-80.2 c0.6200000000000095,-2.05 1.34,-4.01 2.14,-5.88 c20.05,-55.34 42.42,-109.26 66.75,-160.94 c2.85,-6.06 5.7,-12.03 8.64,-18.18 c0.8,-1.6900000000000008 1.61,-3.39 2.41,-4.8100000000000005 c21.03,-43.66 44.83,-88.76 71.47,-133.67 c18.89,-31.99 39.03,-63.72 60.87,-94.55 c0.98,-1.34 1.96,-2.94 3.03,-4.37 c85.82,-121.1 193.82,-228.22 325.36,-276.78 c1.87,-0.6200000000000095 3.83,-1.34 5.7,-2.14 c0.8,-0.27 1.6,-0.54 2.4,-0.7100000000000006 c43.67,-16.22 90.9,-25.04 140.18,-25.04 s96.51,8.82 140.17,25.04 c0.8,0.18000000000000024 1.61,0.45 2.3200000000000003,0.7100000000000006 c1.87,0.8 3.83,1.51 5.7,2.14 c24.86,9.18 48.92,20.41 72.09,33.42 c85.91,48.57 160.4,121.46 223.85,203.62 c10.07,13.01 19.87,26.29 29.41,39.74 c1.1600000000000001,1.4300000000000002 2.14,3.03 3.12,4.37 c21.74,30.83 41.97,62.56 60.87,94.55 c26.56,44.91 50.44,90.01 71.47,133.67 c0.8,1.4300000000000002 1.6,3.12 2.31,4.8100000000000005 c3.03,6.15 5.8,12.12 8.73,18.18 c24.33,51.68 46.7,105.6 66.75,160.94 c0.8,1.87 1.51,3.83 2.14,5.88 c9.620000000000001,26.47 18.54,53.2 27,80.2 c23.52,75.3 42.69,153.01 56.67,231.61 c3.21,17.47 8.65,52.84 8.65,53.02 c4.46,30.03 8.02,60.42 10.870000000000001,90.9 c8.38,90.27 9.18,181.17 1.07,270.46 z" id="svg_19"/>
      <path class="cls-2" d="M1879.8945341300964,1741.1501345825195 c-0.3600000000000003,4.1 -0.7100000000000006,8.29 -1.07,12.39 c-0.3600000000000003,2.5 -1.78,16.84 -1.87,17.29 c-9.8,86.17 -27.89,170.65 -55.78,251.92 c-1.25,3.83 -2.41,7.66 -3.83,11.32 c-21.74,61.31 -48.92,120.57 -82.34,177.16 c-131.98,224.12 -366.53,370 -617.02,384.17 c-2.5,0.09000000000000188 -4.99,0.3600000000000003 -7.4,0.54 h-2.85 c-2.5,0.18000000000000024 -5.08,0.27 -7.66,0.3600000000000003 c-4.46,0.18000000000000024 -8.91,0.18000000000000024 -13.37,0.18000000000000024 c-7.04,0 -14.08,-0.18000000000000024 -21.03,-0.54 h-2.94 c-2.31,-0.18000000000000024 -4.8100000000000005,-0.4400000000000048 -7.3100000000000005,-0.54 c-250.5,-14.17 -485.13,-160.05 -617.11,-384.17 c-33.33,-56.59 -60.6,-115.85 -82.34,-177.16 c-1.34,-3.66 -2.58,-7.49 -3.83,-11.32 c-27.8,-81.27 -45.98,-165.75 -55.7,-251.92 c-0.09000000000000188,-0.45 -1.51,-14.79 -1.87,-17.29 c-0.45,-4.1 -0.7100000000000006,-8.29 -1.1600000000000001,-12.39 c-8.02,-89.29 -7.21,-180.19 1.1600000000000001,-270.46 c2.23,-24.24 4.99,-48.48 8.29,-72.54 c0.8,-6.15 1.6900000000000008,-12.21 2.58,-18.36 c0,-0.18000000000000024 5.44,-35.56 8.65,-53.02 c13.9,-78.6 33.15,-156.31 56.59,-231.61 c8.55,-27 17.47,-53.74 27.09,-80.2 c0.6200000000000095,-2.05 1.34,-4.01 2.14,-5.88 c20.05,-55.34 42.42,-109.26 66.75,-160.94 c2.85,-6.06 5.7,-12.03 8.64,-18.18 c0.8,-1.6900000000000008 1.61,-3.39 2.41,-4.8100000000000005 c21.03,-43.66 44.83,-88.76 71.47,-133.67 c18.89,-31.99 39.03,-63.72 60.87,-94.55 c0.98,-1.34 1.96,-2.94 3.03,-4.37 c85.81,-121.1 193.82,-228.22 325.36,-276.78 c1.87,-0.6200000000000095 3.83,-1.34 5.7,-2.14 c0.8,-0.27 1.6,-0.54 2.4,-0.7100000000000006 c43.67,-16.22 90.9,-25.04 140.18,-25.04 s96.51,8.82 140.17,25.04 c0.81,0.18000000000000024 1.61,0.45 2.3200000000000003,0.7100000000000006 c1.87,0.8 3.83,1.51 5.7,2.14 c24.86,9.18 48.92,20.41 72.09,33.42 c85.91,48.57 160.4,121.46 223.85,203.62 c10.07,13.01 19.87,26.29 29.41,39.74 c1.1600000000000001,1.4300000000000002 2.14,3.03 3.12,4.37 c21.74,30.83 41.97,62.56 60.86,94.55 c26.56,44.91 50.44,90.01 71.47,133.67 c0.8,1.4300000000000002 1.6,3.12 2.31,4.8100000000000005 c3.03,6.15 5.8,12.12 8.73,18.18 c24.33,51.68 46.7,105.6 66.75,160.94 c0.8,1.87 1.51,3.83 2.14,5.88 c9.620000000000001,26.47 18.54,53.2 27,80.2 c23.52,75.3 42.69,153.01 56.67,231.61 c3.21,17.47 8.65,52.84 8.65,53.02 c4.46,30.03 8.02,60.42 10.870000000000001,90.9 c8.38,90.27 9.18,181.17 1.07,270.46 z" id="svg_20"/>
    </g>
  </g><g id="svg_21" class="">
    <path class="cls-9" d="M3863.8745341300964,1873.9201345825195 h863.48 v-287.83 h-575.65 v-287.83 h863.48 v575.65 c0,77.97 -28.49,145.42 -85.45,202.38 c-55.48,56.99 -122.93,85.45 -202.38,85.45 h-863.48 c-79.48,0 -147.67,-28.46 -204.62,-85.45 c-55.49,-55.44 -83.2,-122.9 -83.2,-202.38 v-863.48 c0,-79.44 28.47,-147.64 85.45,-204.63 c53.96,-55.44 121.43,-83.2 202.38,-83.2 h1151.3 v287.83 h-1151.3 v863.48 z" id="svg_22"/>
    <path class="cls-9" d="M5303.0045341300965,2161.7401345825197 v-1439.13 h287.83 v1439.13 h-287.83 z" id="svg_23"/>
    <path class="cls-9" d="M6521.864534130096,2161.7401345825197 c-80.95,0 -138.68,-24.35 -173.14,-73.08 c-34.51,-48.7 -72.74,-120.3 -114.68,-214.75 l-447.48,-1151.3 h287.83 l447.48,1151.3 l416,-1151.3 h287.83 l-416,1151.3 c-40.48,103.44 -79.09,177.29 -115.8,221.49 c-36.75,44.23 -94.09,66.33 -172.02,66.33 z" id="svg_24"/>
    <path class="cls-8" d="M7375.354534130096,2161.7401345825197 v-1151.3 c0,-79.44 27.72,-146.9 83.2,-202.38 c56.96,-56.95 125.16,-85.45 204.63,-85.45 h863.48 c79.44,0 146.9,28.49 202.38,85.45 c56.96,56.99 85.45,124.45 85.45,202.38 v1151.3 h-287.83 v-575.65 h-863.48 v575.65 h-287.83 zM8526.654534130097,1298.2601345825196 v-287.83 h-863.48 v287.83 h863.48 z" id="svg_25"/>
    <path class="cls-9" d="M9102.314534130097,2161.7401345825197 v-1439.13 h1151.3 c79.44,0 146.9,28.49 202.38,85.45 c56.96,56.99 85.45,124.45 85.45,202.38 v863.48 c0,80.95 -28.49,149.18 -85.45,204.63 c-56.98,55.48 -124.45,83.2 -202.38,83.2 h-1151.3 zM10253.614534130096,1298.2601345825196 v-287.83 h-863.48 v287.83 h863.48 zM10253.614534130096,1873.9201345825195 v-287.83 h-863.48 v287.83 h863.48 z" id="svg_26"/>
    <path class="cls-9" d="M10829.274534130096,2161.7401345825197 v-1439.13 h287.83 v1439.13 h-287.83 z" id="svg_27"/>
    <path class="cls-9" d="M11934.524534130096,2161.7401345825197 v-1151.3 h-575.65 v-287.83 h1439.13 v287.83 h-575.65 v1151.3 h-287.83 z" id="svg_28"/>
  </g></g></g></svg>